<svg viewBox="0 0 360 820" xmlns="http://www.w3.org/2000/svg" width="360" height="820">
  <defs>
    <linearGradient id="skin" x1="0" y1="0" x2="1" y2="0">
      <stop offset="0" stop-color="#f0c8a4"/>
      <stop offset="1" stop-color="#e6b88e"/>
    </linearGradient>
    <linearGradient id="hair" x1="0" y1="0" x2="0" y2="1">
      <stop offset="0" stop-color="#7c5238"/>
      <stop offset="1" stop-color="#583824"/>
    </linearGradient>
    <linearGradient id="under" x1="0" y1="0" x2="0" y2="1">
      <stop offset="0" stop-color="#efe3d5"/>
      <stop offset="1" stop-color="#e2d0bd"/>
    </linearGradient>
  </defs>

  <!-- Sombra en el suelo -->
  <ellipse cx="180" cy="778" rx="90" ry="16" fill="#00000012"/>

  <!-- CABELLO (detrás de todo, largo y castaño) -->
  <path fill="url(#hair)" d="M180 48
    C136 48 110 82 114 126
    C116 160 126 178 123 208
    C117 272 110 338 115 396
    C117 414 127 420 140 414
    C131 364 137 302 148 268
    C144 320 143 372 150 414
    L210 414
    C217 372 216 320 212 268
    C223 302 229 364 220 414
    C233 420 243 414 245 396
    C250 338 243 272 237 208
    C234 178 244 160 246 126
    C250 82 224 48 180 48 Z"/>

  <!-- PIERNAS -->
  <path fill="url(#skin)" d="M151 402
    C148 486 150 566 156 626
    C158 672 158 706 156 736
    L172 736
    C174 706 177 672 179 626
    C181 566 180 490 180 436
    C180 490 179 566 181 626
    C183 672 186 706 188 736
    L204 736
    C202 706 202 672 204 626
    C210 566 212 486 209 402 Z"/>

  <!-- PIES -->
  <path fill="url(#skin)" d="M156 734 C150 748 150 758 157 762 L173 762 C174 752 173 742 172 734 Z"/>
  <path fill="url(#skin)" d="M204 734 C210 748 210 758 203 762 L187 762 C186 752 187 742 188 734 Z"/>

  <!-- BRAZOS -->
  <path fill="url(#skin)" d="M150 198
    C138 224 131 264 129 304
    C128 336 131 368 139 396
    C142 404 149 404 152 396
    C149 366 150 330 156 298
    C160 262 162 232 166 208 Z"/>
  <path fill="url(#skin)" d="M210 198
    C222 224 229 264 231 304
    C232 336 229 368 221 396
    C218 404 211 404 208 396
    C211 366 210 330 204 298
    C200 262 198 232 194 208 Z"/>

  <!-- TORSO + CUELLO -->
  <path fill="url(#skin)" d="M170 132
    L190 132
    L190 168
    C206 174 214 186 214 198
    C214 212 209 216 208 234
    C218 272 214 302 206 332
    C214 362 214 388 209 404
    L151 404
    C146 388 146 362 154 332
    C146 302 142 272 152 234
    C151 216 146 212 146 198
    C146 186 154 174 170 168 Z"/>

  <!-- CABEZA -->
  <ellipse cx="180" cy="100" rx="36" ry="45" fill="url(#skin)"/>
  <ellipse cx="145" cy="104" rx="6" ry="8" fill="#e6b88e"/>
  <ellipse cx="215" cy="104" rx="6" ry="8" fill="#e6b88e"/>

  <!-- CARA -->
  <g fill="#5a4130">
    <ellipse cx="167" cy="102" rx="3.3" ry="4.3"/>
    <ellipse cx="193" cy="102" rx="3.3" ry="4.3"/>
  </g>
  <g stroke="#6d4a34" stroke-width="2.2" fill="none" stroke-linecap="round">
    <path d="M160 92 q7 -4 14 0"/>
    <path d="M186 92 q7 -4 14 0"/>
  </g>
  <path d="M178 108 q3 5 5 0" stroke="#d7a488" stroke-width="2" fill="none" stroke-linecap="round"/>
  <path d="M172 121 q8 6 16 0" stroke="#c87f79" stroke-width="3.2" fill="none" stroke-linecap="round"/>
  <circle cx="160" cy="114" r="6.5" fill="#f2b09c" opacity="0.38"/>
  <circle cx="200" cy="114" r="6.5" fill="#f2b09c" opacity="0.38"/>

  <!-- CABELLO delantero (flequillo y mechones que enmarcan la cara) -->
  <path fill="url(#hair)" d="M144 108
    C138 70 158 46 180 46
    C160 52 150 70 149 96
    C148 100 146 104 144 108 Z"/>
  <path fill="url(#hair)" d="M216 108
    C222 70 202 46 180 46
    C200 52 210 70 211 96
    C212 100 214 104 216 108 Z"/>
  <path fill="url(#hair)" d="M180 46
    C164 46 152 56 148 76
    C160 62 172 58 184 61
    C196 64 205 72 209 84
    C208 62 196 46 180 46 Z"/>

  <!-- ROPA INTERIOR NEUTRA (para superponer prendas) -->
  <path fill="url(#under)" d="M150 206 C170 216 190 216 210 206 L210 226 C190 236 170 236 150 226 Z"/>
  <path fill="url(#under)" d="M152 372 C170 380 190 380 208 372 C205 394 196 406 180 406 C164 406 155 394 152 372 Z"/>
</svg>
